<svg width="350" height="55" viewBox="0 0 350 55" fill="none" xmlns="http://www.w3.org/2000/svg">
<rect width="350" height="55" rx="27.5" fill="#C5E3FF"/>
<g filter="url(#filter0_i)">
<path d="M97.68 25C98.8 25 99.6533 24.7467 100.24 24.24C100.853 23.7067 101.16 22.9067 101.16 21.84C101.16 20.8267 100.84 20.0533 100.2 19.52C99.5867 18.96 98.68 18.68 97.48 18.68C97.0533 18.68 96.6933 18.6933 96.4 18.72C96.1333 18.72 95.8533 18.7467 95.56 18.8V25H97.68ZM95.6 37.84C95.3067 37.92 94.84 38 94.2 38.08C93.5867 38.16 92.9733 38.2 92.36 38.2C91.7467 38.2 91.2 38.1467 90.72 38.04C90.2667 37.96 89.88 37.8 89.56 37.56C89.24 37.32 89 36.9867 88.84 36.56C88.68 36.1333 88.6 35.5733 88.6 34.88V16.04C88.6 15.48 88.7467 15.0533 89.04 14.76C89.36 14.44 89.7867 14.1867 90.32 14C91.2267 13.68 92.2533 13.4533 93.4 13.32C94.5733 13.16 95.7467 13.08 96.92 13.08C100.6 13.08 103.413 13.8667 105.36 15.44C107.307 17.0133 108.28 19.1467 108.28 21.84C108.28 23.1467 108.067 24.3333 107.64 25.4C107.24 26.44 106.627 27.3467 105.8 28.12C105 28.8667 103.973 29.4533 102.72 29.88C101.493 30.28 100.067 30.48 98.44 30.48H95.6V37.84ZM111.842 17.48C111.842 16.3333 112.176 15.4267 112.842 14.76C113.509 14.0933 114.416 13.76 115.562 13.76H128.762C128.949 14.0533 129.109 14.44 129.242 14.92C129.402 15.4 129.482 15.9067 129.482 16.44C129.482 17.4533 129.256 18.1733 128.802 18.6C128.376 19.0267 127.802 19.24 127.082 19.24H118.642V22.96H127.642C127.829 23.2533 127.989 23.64 128.122 24.12C128.282 24.5733 128.362 25.0667 128.362 25.6C128.362 26.6133 128.149 27.3333 127.722 27.76C127.296 28.1867 126.722 28.4 126.002 28.4H118.642V32.6H128.922C129.109 32.8933 129.269 33.28 129.402 33.76C129.562 34.24 129.642 34.7467 129.642 35.28C129.642 36.2933 129.416 37.0267 128.962 37.48C128.536 37.9067 127.962 38.12 127.242 38.12H115.562C114.416 38.12 113.509 37.7867 112.842 37.12C112.176 36.4533 111.842 35.5467 111.842 34.4V17.48ZM132.636 19.36C132.45 19.0667 132.276 18.6667 132.116 18.16C131.956 17.6533 131.876 17.12 131.876 16.56C131.876 15.52 132.103 14.7733 132.556 14.32C133.036 13.8667 133.65 13.64 134.396 13.64H151.836C152.023 13.9333 152.196 14.3333 152.356 14.84C152.516 15.3467 152.596 15.88 152.596 16.44C152.596 17.48 152.356 18.2267 151.876 18.68C151.423 19.1333 150.823 19.36 150.076 19.36H145.636V37.84C145.343 37.92 144.876 38 144.236 38.08C143.623 38.16 143.01 38.2 142.396 38.2C141.783 38.2 141.236 38.1467 140.756 38.04C140.303 37.96 139.916 37.8 139.596 37.56C139.276 37.32 139.036 36.9867 138.876 36.56C138.716 36.1333 138.636 35.5733 138.636 34.88V19.36H132.636ZM170.871 28.36C169.697 27.96 168.631 27.56 167.671 27.16C166.711 26.7333 165.884 26.2267 165.191 25.64C164.497 25.0533 163.951 24.36 163.551 23.56C163.177 22.7333 162.991 21.7333 162.991 20.56C162.991 18.2933 163.857 16.48 165.591 15.12C167.351 13.76 169.804 13.08 172.951 13.08C174.097 13.08 175.164 13.16 176.151 13.32C177.137 13.48 177.977 13.7333 178.671 14.08C179.391 14.4 179.951 14.8267 180.351 15.36C180.751 15.8667 180.951 16.4667 180.951 17.16C180.951 17.8533 180.791 18.4533 180.471 18.96C180.151 19.44 179.764 19.8533 179.311 20.2C178.724 19.8267 177.937 19.5067 176.951 19.24C175.964 18.9467 174.884 18.8 173.711 18.8C172.511 18.8 171.631 18.9733 171.071 19.32C170.511 19.64 170.231 20.0533 170.231 20.56C170.231 20.96 170.404 21.2933 170.751 21.56C171.097 21.8 171.617 22.0267 172.311 22.24L174.431 22.92C176.937 23.72 178.857 24.7467 180.191 26C181.551 27.2267 182.231 28.9067 182.231 31.04C182.231 33.3067 181.337 35.1467 179.551 36.56C177.764 37.9467 175.137 38.64 171.671 38.64C170.444 38.64 169.297 38.5333 168.231 38.32C167.191 38.1333 166.271 37.8533 165.471 37.48C164.697 37.08 164.084 36.6 163.631 36.04C163.204 35.4533 162.991 34.7867 162.991 34.04C162.991 33.2667 163.217 32.6133 163.671 32.08C164.124 31.52 164.617 31.0933 165.151 30.8C165.897 31.3867 166.804 31.8933 167.871 32.32C168.964 32.7467 170.151 32.96 171.431 32.96C172.737 32.96 173.657 32.76 174.191 32.36C174.724 31.96 174.991 31.4933 174.991 30.96C174.991 30.4267 174.777 30.0267 174.351 29.76C173.924 29.4667 173.324 29.1867 172.551 28.92L170.871 28.36ZM207.702 37.84C207.409 37.92 206.942 38 206.302 38.08C205.689 38.16 205.075 38.2 204.462 38.2C203.849 38.2 203.302 38.1467 202.822 38.04C202.369 37.96 201.982 37.8 201.662 37.56C201.342 37.32 201.102 36.9867 200.942 36.56C200.782 36.1333 200.702 35.5733 200.702 34.88V28.64H193.022V37.84C192.729 37.92 192.262 38 191.622 38.08C191.009 38.16 190.395 38.2 189.782 38.2C189.169 38.2 188.622 38.1467 188.142 38.04C187.689 37.96 187.302 37.8 186.982 37.56C186.662 37.32 186.422 36.9867 186.262 36.56C186.102 36.1333 186.022 35.5733 186.022 34.88V13.76C186.315 13.7067 186.782 13.64 187.422 13.56C188.062 13.4533 188.675 13.4 189.262 13.4C189.875 13.4 190.409 13.4533 190.862 13.56C191.342 13.64 191.742 13.8 192.062 14.04C192.382 14.28 192.622 14.6133 192.782 15.04C192.942 15.4667 193.022 16.0267 193.022 16.72V23.12H200.702V13.76C200.995 13.7067 201.462 13.64 202.102 13.56C202.742 13.4533 203.355 13.4 203.942 13.4C204.555 13.4 205.089 13.4533 205.542 13.56C206.022 13.64 206.422 13.8 206.742 14.04C207.062 14.28 207.302 14.6133 207.462 15.04C207.622 15.4667 207.702 16.0267 207.702 16.72V37.84ZM211.697 25.84C211.697 23.76 212.017 21.92 212.657 20.32C213.324 18.72 214.217 17.3867 215.337 16.32C216.484 15.2267 217.817 14.4 219.337 13.84C220.884 13.28 222.55 13 224.337 13C226.124 13 227.777 13.28 229.297 13.84C230.844 14.4 232.19 15.2267 233.337 16.32C234.484 17.3867 235.377 18.72 236.017 20.32C236.684 21.92 237.017 23.76 237.017 25.84C237.017 27.92 236.697 29.7733 236.057 31.4C235.417 33 234.524 34.3467 233.377 35.44C232.257 36.5067 230.924 37.32 229.377 37.88C227.83 38.44 226.15 38.72 224.337 38.72C222.524 38.72 220.844 38.44 219.297 37.88C217.75 37.2933 216.417 36.4533 215.297 35.36C214.177 34.2667 213.297 32.92 212.657 31.32C212.017 29.72 211.697 27.8933 211.697 25.84ZM218.897 25.84C218.897 28.2667 219.39 30.08 220.377 31.28C221.364 32.48 222.684 33.08 224.337 33.08C226.017 33.08 227.35 32.48 228.337 31.28C229.324 30.08 229.817 28.2667 229.817 25.84C229.817 23.44 229.324 21.64 228.337 20.44C227.377 19.24 226.057 18.64 224.377 18.64C222.724 18.64 221.39 19.24 220.377 20.44C219.39 21.6133 218.897 23.4133 218.897 25.84ZM250.102 25C251.222 25 252.075 24.7467 252.662 24.24C253.275 23.7067 253.582 22.9067 253.582 21.84C253.582 20.8267 253.262 20.0533 252.622 19.52C252.009 18.96 251.102 18.68 249.902 18.68C249.475 18.68 249.115 18.6933 248.822 18.72C248.555 18.72 248.275 18.7467 247.982 18.8V25H250.102ZM248.022 37.84C247.729 37.92 247.262 38 246.622 38.08C246.009 38.16 245.395 38.2 244.782 38.2C244.169 38.2 243.622 38.1467 243.142 38.04C242.689 37.96 242.302 37.8 241.982 37.56C241.662 37.32 241.422 36.9867 241.262 36.56C241.102 36.1333 241.022 35.5733 241.022 34.88V16.04C241.022 15.48 241.169 15.0533 241.462 14.76C241.782 14.44 242.209 14.1867 242.742 14C243.649 13.68 244.675 13.4533 245.822 13.32C246.995 13.16 248.169 13.08 249.342 13.08C253.022 13.08 255.835 13.8667 257.782 15.44C259.729 17.0133 260.702 19.1467 260.702 21.84C260.702 23.1467 260.489 24.3333 260.062 25.4C259.662 26.44 259.049 27.3467 258.222 28.12C257.422 28.8667 256.395 29.4533 255.142 29.88C253.915 30.28 252.489 30.48 250.862 30.48H248.022V37.84Z" fill="#EB3535" fill-opacity="0.93"/>
</g>
<defs>
<filter id="filter0_i" x="88.6" y="13" width="172.102" height="29.72" filterUnits="userSpaceOnUse" color-interpolation-filters="sRGB">
<feFlood flood-opacity="0" result="BackgroundImageFix"/>
<feBlend mode="normal" in="SourceGraphic" in2="BackgroundImageFix" result="shape"/>
<feColorMatrix in="SourceAlpha" type="matrix" values="0 0 0 0 0 0 0 0 0 0 0 0 0 0 0 0 0 0 127 0" result="hardAlpha"/>
<feOffset dy="4"/>
<feGaussianBlur stdDeviation="2"/>
<feComposite in2="hardAlpha" operator="arithmetic" k2="-1" k3="1"/>
<feColorMatrix type="matrix" values="0 0 0 0 0 0 0 0 0 0 0 0 0 0 0 0 0 0 0.25 0"/>
<feBlend mode="normal" in2="shape" result="effect1_innerShadow"/>
</filter>
</defs>
</svg>
